<mxfile host="app.diagrams.net" modified="2024-01-03T13:29:23.922Z" agent="Mozilla/5.0 (Windows NT 10.0; Win64; x64) AppleWebKit/537.36 (KHTML, like Gecko) Chrome/120.0.0.0 Safari/537.36" etag="94f5xfqNzS9E-RvMCLsD" version="22.1.16" type="github">
  <diagram name="Seite-1" id="rovOoJl86YS6769YqhK_">
    <mxGraphModel dx="836" dy="434" grid="1" gridSize="10" guides="1" tooltips="1" connect="1" arrows="1" fold="1" page="1" pageScale="1" pageWidth="827" pageHeight="1169" math="0" shadow="0">
      <root>
        <mxCell id="0" />
        <mxCell id="1" parent="0" />
        <mxCell id="62BAKvyV0nd48fTFcaxu-1" style="edgeStyle=orthogonalEdgeStyle;rounded=0;orthogonalLoop=1;jettySize=auto;html=1;exitX=0.5;exitY=1;exitDx=0;exitDy=0;entryX=0.5;entryY=0;entryDx=0;entryDy=0;dashed=1;" edge="1" parent="1" source="62BAKvyV0nd48fTFcaxu-2" target="62BAKvyV0nd48fTFcaxu-5">
          <mxGeometry relative="1" as="geometry" />
        </mxCell>
        <mxCell id="62BAKvyV0nd48fTFcaxu-2" value="&lt;b&gt;S&lt;/b&gt;" style="ellipse;whiteSpace=wrap;html=1;aspect=fixed;fillColor=#dae8fc;strokeColor=#6c8ebf;strokeWidth=2;shadow=1;" vertex="1" parent="1">
          <mxGeometry x="555" y="20" width="30" height="30" as="geometry" />
        </mxCell>
        <mxCell id="62BAKvyV0nd48fTFcaxu-3" value="&lt;b&gt;E&lt;/b&gt;" style="ellipse;whiteSpace=wrap;html=1;aspect=fixed;fillColor=#dae8fc;strokeColor=#6c8ebf;strokeWidth=4;shadow=1;" vertex="1" parent="1">
          <mxGeometry x="555" y="980" width="30" height="30" as="geometry" />
        </mxCell>
        <mxCell id="62BAKvyV0nd48fTFcaxu-4" value="" style="edgeStyle=orthogonalEdgeStyle;rounded=0;orthogonalLoop=1;jettySize=auto;html=1;dashed=1;" edge="1" parent="1" source="62BAKvyV0nd48fTFcaxu-5" target="62BAKvyV0nd48fTFcaxu-12">
          <mxGeometry relative="1" as="geometry" />
        </mxCell>
        <mxCell id="62BAKvyV0nd48fTFcaxu-5" value="&lt;b&gt;Startschritt&lt;/b&gt;" style="rounded=1;whiteSpace=wrap;html=1;fillColor=#d5e8d4;strokeColor=#82b366;strokeWidth=2;shadow=0;glass=0;" vertex="1" parent="1">
          <mxGeometry x="510" y="90" width="120" height="60" as="geometry" />
        </mxCell>
        <mxCell id="62BAKvyV0nd48fTFcaxu-6" value="" style="edgeStyle=orthogonalEdgeStyle;rounded=0;orthogonalLoop=1;jettySize=auto;html=1;dashed=1;fillColor=#f8cecc;strokeColor=#b85450;exitX=0.75;exitY=0;exitDx=0;exitDy=0;" edge="1" parent="1" source="62BAKvyV0nd48fTFcaxu-8" target="62BAKvyV0nd48fTFcaxu-13">
          <mxGeometry relative="1" as="geometry">
            <Array as="points">
              <mxPoint x="600" y="320" />
            </Array>
          </mxGeometry>
        </mxCell>
        <mxCell id="62BAKvyV0nd48fTFcaxu-7" value="" style="edgeStyle=orthogonalEdgeStyle;rounded=0;orthogonalLoop=1;jettySize=auto;html=1;dashed=1;" edge="1" parent="1" source="62BAKvyV0nd48fTFcaxu-8" target="62BAKvyV0nd48fTFcaxu-17">
          <mxGeometry relative="1" as="geometry" />
        </mxCell>
        <mxCell id="62BAKvyV0nd48fTFcaxu-8" value="&lt;b&gt;Systemaktivität&lt;/b&gt;" style="rounded=1;whiteSpace=wrap;html=1;fillColor=#fff2cc;strokeColor=#d6b656;strokeWidth=2;" vertex="1" parent="1">
          <mxGeometry x="510" y="290" width="120" height="60" as="geometry" />
        </mxCell>
        <mxCell id="62BAKvyV0nd48fTFcaxu-10" style="edgeStyle=orthogonalEdgeStyle;rounded=0;orthogonalLoop=1;jettySize=auto;html=1;entryX=0.5;entryY=0;entryDx=0;entryDy=0;dashed=1;" edge="1" parent="1" source="62BAKvyV0nd48fTFcaxu-12" target="62BAKvyV0nd48fTFcaxu-8">
          <mxGeometry relative="1" as="geometry" />
        </mxCell>
        <mxCell id="62BAKvyV0nd48fTFcaxu-11" value="" style="edgeStyle=orthogonalEdgeStyle;rounded=0;orthogonalLoop=1;jettySize=auto;html=1;dashed=1;fillColor=#f8cecc;strokeColor=#b85450;" edge="1" parent="1" source="62BAKvyV0nd48fTFcaxu-12" target="62BAKvyV0nd48fTFcaxu-14">
          <mxGeometry relative="1" as="geometry" />
        </mxCell>
        <mxCell id="62BAKvyV0nd48fTFcaxu-12" value="&lt;b&gt;Benutzeraktivität&lt;/b&gt;" style="rounded=1;whiteSpace=wrap;html=1;fillColor=#d5e8d4;strokeColor=#82b366;strokeWidth=2;shadow=0;glass=0;" vertex="1" parent="1">
          <mxGeometry x="510" y="190" width="120" height="60" as="geometry" />
        </mxCell>
        <mxCell id="62BAKvyV0nd48fTFcaxu-13" value="&lt;b&gt;Senden&lt;/b&gt; an Führungskraft" style="rounded=1;whiteSpace=wrap;html=1;fillColor=#fff2cc;strokeColor=#d6b656;strokeWidth=2;" vertex="1" parent="1">
          <mxGeometry x="670" y="290" width="120" height="60" as="geometry" />
        </mxCell>
        <mxCell id="62BAKvyV0nd48fTFcaxu-14" value="Antrag (Tabelle) &lt;b&gt;ausfüllen&lt;/b&gt;" style="rounded=1;whiteSpace=wrap;html=1;fillColor=#d5e8d4;strokeColor=#82b366;strokeWidth=2;" vertex="1" parent="1">
          <mxGeometry x="670" y="190" width="120" height="60" as="geometry" />
        </mxCell>
        <mxCell id="62BAKvyV0nd48fTFcaxu-15" value="Antrag &lt;b&gt;prüfen &lt;/b&gt;und &lt;b&gt;unterzeichnen&lt;/b&gt;" style="rounded=1;whiteSpace=wrap;html=1;fillColor=#d5e8d4;strokeColor=#82b366;strokeWidth=2;" vertex="1" parent="1">
          <mxGeometry x="670" y="390" width="120" height="60" as="geometry" />
        </mxCell>
        <mxCell id="62BAKvyV0nd48fTFcaxu-16" value="" style="edgeStyle=orthogonalEdgeStyle;rounded=0;orthogonalLoop=1;jettySize=auto;html=1;fillColor=#f8cecc;strokeColor=#b85450;dashed=1;" edge="1" parent="1" source="62BAKvyV0nd48fTFcaxu-17" target="62BAKvyV0nd48fTFcaxu-15">
          <mxGeometry relative="1" as="geometry" />
        </mxCell>
        <mxCell id="62BAKvyV0nd48fTFcaxu-48" value="" style="edgeStyle=orthogonalEdgeStyle;rounded=0;orthogonalLoop=1;jettySize=auto;html=1;dashed=1;" edge="1" parent="1" source="62BAKvyV0nd48fTFcaxu-17" target="62BAKvyV0nd48fTFcaxu-47">
          <mxGeometry relative="1" as="geometry" />
        </mxCell>
        <mxCell id="62BAKvyV0nd48fTFcaxu-17" value="&lt;b&gt;Benutzeraktivität&lt;/b&gt;" style="rounded=1;whiteSpace=wrap;html=1;fillColor=#d5e8d4;strokeColor=#82b366;strokeWidth=2;shadow=0;glass=0;" vertex="1" parent="1">
          <mxGeometry x="510" y="390" width="120" height="60" as="geometry" />
        </mxCell>
        <mxCell id="62BAKvyV0nd48fTFcaxu-19" value="&lt;h1&gt;Prozessgrafik&lt;br&gt;Dienstreiseantrag&lt;/h1&gt;&lt;ul style=&quot;border-color: var(--border-color); color: rgb(51, 51, 51);&quot;&gt;&lt;li style=&quot;border-color: var(--border-color);&quot;&gt;Welche Schritte?&lt;/li&gt;&lt;li style=&quot;border-color: var(--border-color);&quot;&gt;Reihenfolge?&lt;/li&gt;&lt;li style=&quot;border-color: var(--border-color);&quot;&gt;Benutzer- und systemseitige Hintergrundaktionen?&lt;/li&gt;&lt;li style=&quot;border-color: var(--border-color);&quot;&gt;Entscheidungen, Schleifen oder Parallelität?&lt;/li&gt;&lt;/ul&gt;&lt;ol style=&quot;border-color: var(--border-color); color: rgb(51, 51, 51);&quot;&gt;&lt;li style=&quot;border-color: var(--border-color);&quot;&gt;Prozessgrafik erstellen&lt;/li&gt;&lt;li style=&quot;border-color: var(--border-color);&quot;&gt;Verantwortliche, Benutzer und -rollen&lt;/li&gt;&lt;li style=&quot;border-color: var(--border-color);&quot;&gt;Datenmodell für Kopf- und Positionsdaten&lt;/li&gt;&lt;li style=&quot;border-color: var(--border-color);&quot;&gt;Schrittdetails&lt;/li&gt;&lt;li style=&quot;border-color: var(--border-color);&quot;&gt;Dialogdesign/-elemente zur Benutzereingabe&lt;/li&gt;&lt;li style=&quot;border-color: var(--border-color);&quot;&gt;Regeln der Businesslogik&lt;/li&gt;&lt;li style=&quot;border-color: var(--border-color);&quot;&gt;Schnittstellen für Datenaustausch&lt;/li&gt;&lt;/ol&gt;" style="text;html=1;spacing=5;spacingTop=-20;whiteSpace=wrap;overflow=hidden;rounded=0;fillColor=#FFFFFF;fontColor=#333333;strokeColor=none;" vertex="1" parent="1">
          <mxGeometry x="10" y="10" width="330" height="260" as="geometry" />
        </mxCell>
        <mxCell id="62BAKvyV0nd48fTFcaxu-34" value="&lt;h1&gt;Felder Tabelle&lt;/h1&gt;&lt;div&gt;&lt;ul style=&quot;border-color: var(--border-color);&quot;&gt;&lt;li style=&quot;border-color: var(--border-color);&quot;&gt;Tabellenname: DRA (DienstReiseAntrag)&lt;/li&gt;&lt;li style=&quot;border-color: var(--border-color);&quot;&gt;Dienstreisende:r (Textfeld, 50)&lt;/li&gt;&lt;ul style=&quot;border-color: var(--border-color);&quot;&gt;&lt;li style=&quot;border-color: var(--border-color);&quot;&gt;weitere Personen&lt;/li&gt;&lt;ul style=&quot;border-color: var(--border-color);&quot;&gt;&lt;li style=&quot;border-color: var(--border-color);&quot;&gt;Textfeld, 50&lt;/li&gt;&lt;/ul&gt;&lt;li style=&quot;border-color: var(--border-color);&quot;&gt;Dienststelle (OE)&lt;/li&gt;&lt;ul style=&quot;border-color: var(--border-color);&quot;&gt;&lt;li style=&quot;border-color: var(--border-color);&quot;&gt;Zahl, 100&lt;/li&gt;&lt;/ul&gt;&lt;li style=&quot;border-color: var(--border-color);&quot;&gt;Telefon&lt;/li&gt;&lt;ul style=&quot;border-color: var(--border-color);&quot;&gt;&lt;li style=&quot;border-color: var(--border-color);&quot;&gt;Zahl, 15&lt;/li&gt;&lt;/ul&gt;&lt;/ul&gt;&lt;li style=&quot;border-color: var(--border-color);&quot;&gt;Fahrt&lt;/li&gt;&lt;ul style=&quot;border-color: var(--border-color);&quot;&gt;&lt;li style=&quot;border-color: var(--border-color);&quot;&gt;Abfahrt von (Anschrift)&lt;/li&gt;&lt;ul style=&quot;border-color: var(--border-color);&quot;&gt;&lt;li style=&quot;border-color: var(--border-color);&quot;&gt;Textfeld, 100&lt;/li&gt;&lt;/ul&gt;&lt;li style=&quot;border-color: var(--border-color);&quot;&gt;Reiseweg&lt;/li&gt;&lt;ul style=&quot;border-color: var(--border-color);&quot;&gt;&lt;li style=&quot;border-color: var(--border-color);&quot;&gt;Zahl, 100&lt;/li&gt;&lt;/ul&gt;&lt;li style=&quot;border-color: var(--border-color);&quot;&gt;Reiseziel (Anschrift)&lt;/li&gt;&lt;ul style=&quot;border-color: var(--border-color);&quot;&gt;&lt;li style=&quot;border-color: var(--border-color);&quot;&gt;Textfeld, 100&lt;/li&gt;&lt;/ul&gt;&lt;li style=&quot;border-color: var(--border-color);&quot;&gt;Rückkehr nach (Anschrift)&lt;/li&gt;&lt;ul style=&quot;border-color: var(--border-color);&quot;&gt;&lt;li style=&quot;border-color: var(--border-color);&quot;&gt;Textfeld, 100&lt;/li&gt;&lt;/ul&gt;&lt;/ul&gt;&lt;li style=&quot;border-color: var(--border-color);&quot;&gt;Begründung Notwendigkeit&lt;/li&gt;&lt;ul style=&quot;border-color: var(--border-color);&quot;&gt;&lt;li style=&quot;border-color: var(--border-color);&quot;&gt;Textfeld, 500&lt;/li&gt;&lt;/ul&gt;&lt;li style=&quot;border-color: var(--border-color);&quot;&gt;Zeitraum&lt;/li&gt;&lt;ul style=&quot;border-color: var(--border-color);&quot;&gt;&lt;li style=&quot;border-color: var(--border-color);&quot;&gt;Beginn Dienstreise&lt;/li&gt;&lt;ul style=&quot;border-color: var(--border-color);&quot;&gt;&lt;li style=&quot;border-color: var(--border-color);&quot;&gt;Datum, Uhrzeit&lt;/li&gt;&lt;/ul&gt;&lt;li style=&quot;border-color: var(--border-color);&quot;&gt;Beginn Dienstgeschäft&lt;/li&gt;&lt;ul style=&quot;border-color: var(--border-color);&quot;&gt;&lt;li style=&quot;border-color: var(--border-color);&quot;&gt;Datum, Uhrzeit&lt;/li&gt;&lt;/ul&gt;&lt;li style=&quot;border-color: var(--border-color);&quot;&gt;Ende Dienstgeschäft&lt;/li&gt;&lt;ul style=&quot;border-color: var(--border-color);&quot;&gt;&lt;li style=&quot;border-color: var(--border-color);&quot;&gt;Datum, Uhrzeit (ca)&lt;/li&gt;&lt;/ul&gt;&lt;li style=&quot;border-color: var(--border-color);&quot;&gt;Ende Dienstreise&lt;/li&gt;&lt;ul style=&quot;border-color: var(--border-color);&quot;&gt;&lt;li style=&quot;border-color: var(--border-color);&quot;&gt;Datum, Uhrzeit (ca)&lt;/li&gt;&lt;/ul&gt;&lt;/ul&gt;&lt;li style=&quot;border-color: var(--border-color);&quot;&gt;Beförderungsmittel&lt;/li&gt;&lt;ul style=&quot;border-color: var(--border-color);&quot;&gt;&lt;li style=&quot;border-color: var(--border-color);&quot;&gt;Checkboxen&lt;/li&gt;&lt;li style=&quot;border-color: var(--border-color);&quot;&gt;Hinfahrt / Rückfahrt&lt;/li&gt;&lt;ul style=&quot;border-color: var(--border-color);&quot;&gt;&lt;li style=&quot;border-color: var(--border-color);&quot;&gt;Bahn/Bus&lt;/li&gt;&lt;li style=&quot;border-color: var(--border-color);&quot;&gt;Dienst-Kfz&lt;/li&gt;&lt;li style=&quot;border-color: var(--border-color);&quot;&gt;privates Kfz&lt;/li&gt;&lt;li style=&quot;border-color: var(--border-color);&quot;&gt;privater PKW&lt;/li&gt;&lt;li style=&quot;border-color: var(--border-color);&quot;&gt;Mitfahrt bei&lt;/li&gt;&lt;ul style=&quot;border-color: var(--border-color);&quot;&gt;&lt;li style=&quot;border-color: var(--border-color);&quot;&gt;Textfeld&lt;/li&gt;&lt;/ul&gt;&lt;li style=&quot;border-color: var(--border-color);&quot;&gt;sonstige&lt;/li&gt;&lt;li style=&quot;border-color: var(--border-color);&quot;&gt;Begründung Nutzung privater PKW&lt;/li&gt;&lt;/ul&gt;&lt;/ul&gt;&lt;/ul&gt;&lt;/div&gt;" style="text;html=1;spacing=5;spacingTop=-20;whiteSpace=wrap;overflow=hidden;rounded=0;fillColor=#FFFFFF;fontColor=#333333;strokeColor=none;" vertex="1" parent="1">
          <mxGeometry x="10" y="285" width="330" height="625" as="geometry" />
        </mxCell>
        <mxCell id="62BAKvyV0nd48fTFcaxu-45" value="" style="edgeStyle=orthogonalEdgeStyle;rounded=0;orthogonalLoop=1;jettySize=auto;html=1;dashed=1;" edge="1" parent="1" source="62BAKvyV0nd48fTFcaxu-38" target="62BAKvyV0nd48fTFcaxu-3">
          <mxGeometry relative="1" as="geometry" />
        </mxCell>
        <mxCell id="62BAKvyV0nd48fTFcaxu-52" style="edgeStyle=orthogonalEdgeStyle;rounded=0;orthogonalLoop=1;jettySize=auto;html=1;entryX=0.5;entryY=0;entryDx=0;entryDy=0;dashed=1;fillColor=#ffcccc;strokeColor=#36393d;" edge="1" parent="1" source="62BAKvyV0nd48fTFcaxu-47" target="62BAKvyV0nd48fTFcaxu-50">
          <mxGeometry relative="1" as="geometry" />
        </mxCell>
        <mxCell id="62BAKvyV0nd48fTFcaxu-53" style="edgeStyle=orthogonalEdgeStyle;rounded=0;orthogonalLoop=1;jettySize=auto;html=1;entryX=0.5;entryY=0;entryDx=0;entryDy=0;dashed=1;fillColor=#ffcccc;strokeColor=#36393d;" edge="1" parent="1" source="62BAKvyV0nd48fTFcaxu-47" target="62BAKvyV0nd48fTFcaxu-49">
          <mxGeometry relative="1" as="geometry" />
        </mxCell>
        <mxCell id="62BAKvyV0nd48fTFcaxu-47" value="&lt;font size=&quot;1&quot; style=&quot;&quot;&gt;&lt;b style=&quot;font-size: 15px;&quot;&gt;X&lt;/b&gt;&lt;/font&gt;" style="rhombus;whiteSpace=wrap;html=1;fillColor=#cce5ff;strokeColor=#6c8ebf;strokeWidth=2;" vertex="1" parent="1">
          <mxGeometry x="550" y="490" width="40" height="40" as="geometry" />
        </mxCell>
        <mxCell id="62BAKvyV0nd48fTFcaxu-57" style="edgeStyle=orthogonalEdgeStyle;rounded=0;orthogonalLoop=1;jettySize=auto;html=1;entryX=0;entryY=0.5;entryDx=0;entryDy=0;exitX=0.5;exitY=1;exitDx=0;exitDy=0;dashed=1;" edge="1" parent="1" source="62BAKvyV0nd48fTFcaxu-49" target="62BAKvyV0nd48fTFcaxu-37">
          <mxGeometry relative="1" as="geometry">
            <mxPoint x="480" y="570" as="sourcePoint" />
          </mxGeometry>
        </mxCell>
        <mxCell id="62BAKvyV0nd48fTFcaxu-60" style="edgeStyle=orthogonalEdgeStyle;rounded=0;orthogonalLoop=1;jettySize=auto;html=1;exitX=0.25;exitY=1;exitDx=0;exitDy=0;entryX=0.75;entryY=0;entryDx=0;entryDy=0;dashed=1;dashPattern=1 1;" edge="1" parent="1" source="62BAKvyV0nd48fTFcaxu-49" target="62BAKvyV0nd48fTFcaxu-18">
          <mxGeometry relative="1" as="geometry">
            <Array as="points">
              <mxPoint x="440" y="600" />
            </Array>
          </mxGeometry>
        </mxCell>
        <mxCell id="62BAKvyV0nd48fTFcaxu-49" value="Antrag &lt;b&gt;zusagen&lt;/b&gt;" style="rounded=1;whiteSpace=wrap;html=1;fillColor=#d5e8d4;strokeColor=#82b366;strokeWidth=2;" vertex="1" parent="1">
          <mxGeometry x="420" y="540" width="120" height="60" as="geometry" />
        </mxCell>
        <mxCell id="62BAKvyV0nd48fTFcaxu-58" style="edgeStyle=orthogonalEdgeStyle;rounded=0;orthogonalLoop=1;jettySize=auto;html=1;entryX=1;entryY=0.5;entryDx=0;entryDy=0;exitX=0.5;exitY=1;exitDx=0;exitDy=0;dashed=1;" edge="1" parent="1" source="62BAKvyV0nd48fTFcaxu-50" target="62BAKvyV0nd48fTFcaxu-37">
          <mxGeometry relative="1" as="geometry">
            <mxPoint x="660.0000000000002" y="570" as="sourcePoint" />
          </mxGeometry>
        </mxCell>
        <mxCell id="62BAKvyV0nd48fTFcaxu-50" value="Antrag &lt;b&gt;absagen&lt;/b&gt;" style="rounded=1;whiteSpace=wrap;html=1;fillColor=#d5e8d4;strokeColor=#82b366;strokeWidth=2;" vertex="1" parent="1">
          <mxGeometry x="600" y="540" width="120" height="60" as="geometry" />
        </mxCell>
        <mxCell id="62BAKvyV0nd48fTFcaxu-18" value="&lt;b&gt;Weiterleiten &lt;/b&gt;an Personalabteilung" style="rounded=1;whiteSpace=wrap;html=1;fillColor=#fff2cc;strokeColor=#d6b656;strokeWidth=2;" vertex="1" parent="1">
          <mxGeometry x="350" y="795" width="120" height="60" as="geometry" />
        </mxCell>
        <mxCell id="62BAKvyV0nd48fTFcaxu-20" value="&lt;b&gt;Systemaktivität&lt;/b&gt;" style="rounded=1;whiteSpace=wrap;html=1;fillColor=#fff2cc;strokeColor=#d6b656;strokeWidth=2;" vertex="1" parent="1">
          <mxGeometry x="510" y="700" width="120" height="60" as="geometry" />
        </mxCell>
        <mxCell id="62BAKvyV0nd48fTFcaxu-27" value="&lt;b&gt;Ablage&lt;/b&gt; der Datei in Archiv" style="rounded=1;whiteSpace=wrap;html=1;fillColor=#fff2cc;strokeColor=#d6b656;strokeWidth=2;" vertex="1" parent="1">
          <mxGeometry x="670" y="795" width="120" height="60" as="geometry" />
        </mxCell>
        <mxCell id="62BAKvyV0nd48fTFcaxu-28" style="edgeStyle=orthogonalEdgeStyle;rounded=0;orthogonalLoop=1;jettySize=auto;html=1;exitX=1;exitY=0.5;exitDx=0;exitDy=0;entryX=0.5;entryY=0;entryDx=0;entryDy=0;dashed=1;fillColor=#f8cecc;strokeColor=#000000;" edge="1" parent="1" source="62BAKvyV0nd48fTFcaxu-20" target="62BAKvyV0nd48fTFcaxu-27">
          <mxGeometry relative="1" as="geometry" />
        </mxCell>
        <mxCell id="62BAKvyV0nd48fTFcaxu-29" value="&lt;b&gt;Zu-/Absage&amp;nbsp;&lt;/b&gt;an Antragstellenden" style="rounded=1;whiteSpace=wrap;html=1;fillColor=#fff2cc;strokeColor=#d6b656;strokeWidth=2;" vertex="1" parent="1">
          <mxGeometry x="510" y="795" width="120" height="60" as="geometry" />
        </mxCell>
        <mxCell id="62BAKvyV0nd48fTFcaxu-30" style="edgeStyle=orthogonalEdgeStyle;rounded=0;orthogonalLoop=1;jettySize=auto;html=1;exitX=0.5;exitY=1;exitDx=0;exitDy=0;entryX=0.5;entryY=0;entryDx=0;entryDy=0;fillColor=#f8cecc;strokeColor=#000000;dashed=1;" edge="1" parent="1" source="62BAKvyV0nd48fTFcaxu-20" target="62BAKvyV0nd48fTFcaxu-29">
          <mxGeometry relative="1" as="geometry" />
        </mxCell>
        <mxCell id="62BAKvyV0nd48fTFcaxu-43" value="" style="edgeStyle=orthogonalEdgeStyle;rounded=0;orthogonalLoop=1;jettySize=auto;html=1;dashed=1;" edge="1" parent="1" source="62BAKvyV0nd48fTFcaxu-37" target="62BAKvyV0nd48fTFcaxu-20">
          <mxGeometry relative="1" as="geometry" />
        </mxCell>
        <mxCell id="62BAKvyV0nd48fTFcaxu-37" value="&lt;font style=&quot;font-size: 20px;&quot;&gt;&lt;b&gt;+&lt;/b&gt;&lt;/font&gt;" style="rhombus;whiteSpace=wrap;html=1;fillColor=#cce5ff;strokeColor=#6c8ebf;strokeWidth=2;" vertex="1" parent="1">
          <mxGeometry x="550" y="620" width="40" height="40" as="geometry" />
        </mxCell>
        <mxCell id="62BAKvyV0nd48fTFcaxu-38" value="&lt;font style=&quot;font-size: 20px;&quot;&gt;&lt;b&gt;+&lt;/b&gt;&lt;/font&gt;" style="rhombus;whiteSpace=wrap;html=1;fillColor=#cce5ff;strokeColor=#6c8ebf;strokeWidth=4;" vertex="1" parent="1">
          <mxGeometry x="550" y="900" width="40" height="40" as="geometry" />
        </mxCell>
        <mxCell id="62BAKvyV0nd48fTFcaxu-44" value="" style="edgeStyle=orthogonalEdgeStyle;rounded=0;orthogonalLoop=1;jettySize=auto;html=1;dashed=1;" edge="1" parent="1" source="62BAKvyV0nd48fTFcaxu-29" target="62BAKvyV0nd48fTFcaxu-38">
          <mxGeometry relative="1" as="geometry" />
        </mxCell>
      </root>
    </mxGraphModel>
  </diagram>
</mxfile>
